<?xml version="1.0" encoding="iso-8859-1"?>
<!-- Generator: Adobe Illustrator 16.0.0, SVG Export Plug-In . SVG Version: 6.00 Build 0)  -->
<!DOCTYPE svg PUBLIC "-//W3C//DTD SVG 1.1//EN" "http://www.w3.org/Graphics/SVG/1.1/DTD/svg11.dtd">
<svg version="1.1" id="Capa_1" xmlns="http://www.w3.org/2000/svg" xmlns:xlink="http://www.w3.org/1999/xlink" x="0px" y="0px"
	 width="704.186px" height="704.186px" viewBox="0 0 704.186 704.186" style="enable-background:new 0 0 704.186 704.186;"
	 xml:space="preserve">
<g>
	<g>
		<path d="M13.637,704.168c0.3,0,0.5,0,0.8,0l69.6-4.9l-21.1-58l-58-21.1l-4.9,69.6C-0.563,697.068,6.336,704.168,13.637,704.168z"
			/>
		<polygon points="97.737,606.468 121.836,672.868 195.836,689.268 613.036,272.168 431.937,91.168 431.937,91.168 14.836,508.268 
			31.336,582.368 		"/>
		<path d="M640.136,242.468l-178.399-178.5l58.1-58.1c7.8-7.801,20.5-7.801,28.3,0l150.2,150.199c7.8,7.801,7.8,20.5,0,28.301
			L640.136,242.468z"/>
	</g>
</g>
<g>
</g>
<g>
</g>
<g>
</g>
<g>
</g>
<g>
</g>
<g>
</g>
<g>
</g>
<g>
</g>
<g>
</g>
<g>
</g>
<g>
</g>
<g>
</g>
<g>
</g>
<g>
</g>
<g>
</g>
</svg>
